<svg width="14" height="17" viewBox="0 0 14 17" fill="none" xmlns="http://www.w3.org/2000/svg">
<path d="M3.25 7.875H10.75C10.9158 7.875 11.0747 7.80915 11.1919 7.69194C11.3092 7.57473 11.375 7.41576 11.375 7.25V3.5C11.375 3.33424 11.3092 3.17527 11.1919 3.05806C11.0747 2.94085 10.9158 2.875 10.75 2.875H3.25C3.08424 2.875 2.92527 2.94085 2.80806 3.05806C2.69085 3.17527 2.625 3.33424 2.625 3.5V7.25C2.625 7.41576 2.69085 7.57473 2.80806 7.69194C2.92527 7.80915 3.08424 7.875 3.25 7.875ZM3.875 4.125H10.125V6.625H3.875V4.125ZM12.625 0.375H1.375C1.04348 0.375 0.725537 0.506696 0.491116 0.741116C0.256696 0.975537 0.125 1.29348 0.125 1.625V15.375C0.125 15.7065 0.256696 16.0245 0.491116 16.2589C0.725537 16.4933 1.04348 16.625 1.375 16.625H12.625C12.9565 16.625 13.2745 16.4933 13.5089 16.2589C13.7433 16.0245 13.875 15.7065 13.875 15.375V1.625C13.875 1.29348 13.7433 0.975537 13.5089 0.741116C13.2745 0.506696 12.9565 0.375 12.625 0.375ZM12.625 15.375H1.375V1.625H12.625V15.375ZM4.8125 10.0625C4.8125 10.2479 4.75752 10.4292 4.6545 10.5833C4.55149 10.7375 4.40507 10.8577 4.23377 10.9286C4.06246 10.9996 3.87396 11.0182 3.6921 10.982C3.51025 10.9458 3.3432 10.8565 3.21209 10.7254C3.08098 10.5943 2.99169 10.4273 2.95551 10.2454C2.91934 10.0635 2.93791 9.87504 3.00886 9.70374C3.07982 9.53243 3.19998 9.38601 3.35415 9.283C3.50832 9.17998 3.68958 9.125 3.875 9.125C4.12364 9.125 4.3621 9.22377 4.53791 9.39959C4.71373 9.5754 4.8125 9.81386 4.8125 10.0625ZM7.9375 10.0625C7.9375 10.2479 7.88252 10.4292 7.7795 10.5833C7.67649 10.7375 7.53007 10.8577 7.35877 10.9286C7.18746 10.9996 6.99896 11.0182 6.8171 10.982C6.63525 10.9458 6.4682 10.8565 6.33709 10.7254C6.20598 10.5943 6.11669 10.4273 6.08051 10.2454C6.04434 10.0635 6.06291 9.87504 6.13386 9.70374C6.20482 9.53243 6.32498 9.38601 6.47915 9.283C6.63332 9.17998 6.81458 9.125 7 9.125C7.24864 9.125 7.4871 9.22377 7.66291 9.39959C7.83873 9.5754 7.9375 9.81386 7.9375 10.0625ZM11.0625 10.0625C11.0625 10.2479 11.0075 10.4292 10.9045 10.5833C10.8015 10.7375 10.6551 10.8577 10.4838 10.9286C10.3125 10.9996 10.124 11.0182 9.9421 10.982C9.76025 10.9458 9.5932 10.8565 9.46209 10.7254C9.33098 10.5943 9.24169 10.4273 9.20551 10.2454C9.16934 10.0635 9.18791 9.87504 9.25886 9.70374C9.32982 9.53243 9.44998 9.38601 9.60415 9.283C9.75832 9.17998 9.93958 9.125 10.125 9.125C10.3736 9.125 10.6121 9.22377 10.7879 9.39959C10.9637 9.5754 11.0625 9.81386 11.0625 10.0625ZM4.8125 13.1875C4.8125 13.3729 4.75752 13.5542 4.6545 13.7083C4.55149 13.8625 4.40507 13.9827 4.23377 14.0536C4.06246 14.1246 3.87396 14.1432 3.6921 14.107C3.51025 14.0708 3.3432 13.9815 3.21209 13.8504C3.08098 13.7193 2.99169 13.5523 2.95551 13.3704C2.91934 13.1885 2.93791 13 3.00886 12.8287C3.07982 12.6574 3.19998 12.511 3.35415 12.408C3.50832 12.305 3.68958 12.25 3.875 12.25C4.12364 12.25 4.3621 12.3488 4.53791 12.5246C4.71373 12.7004 4.8125 12.9389 4.8125 13.1875ZM7.9375 13.1875C7.9375 13.3729 7.88252 13.5542 7.7795 13.7083C7.67649 13.8625 7.53007 13.9827 7.35877 14.0536C7.18746 14.1246 6.99896 14.1432 6.8171 14.107C6.63525 14.0708 6.4682 13.9815 6.33709 13.8504C6.20598 13.7193 6.11669 13.5523 6.08051 13.3704C6.04434 13.1885 6.06291 13 6.13386 12.8287C6.20482 12.6574 6.32498 12.511 6.47915 12.408C6.63332 12.305 6.81458 12.25 7 12.25C7.24864 12.25 7.4871 12.3488 7.66291 12.5246C7.83873 12.7004 7.9375 12.9389 7.9375 13.1875ZM11.0625 13.1875C11.0625 13.3729 11.0075 13.5542 10.9045 13.7083C10.8015 13.8625 10.6551 13.9827 10.4838 14.0536C10.3125 14.1246 10.124 14.1432 9.9421 14.107C9.76025 14.0708 9.5932 13.9815 9.46209 13.8504C9.33098 13.7193 9.24169 13.5523 9.20551 13.3704C9.16934 13.1885 9.18791 13 9.25886 12.8287C9.32982 12.6574 9.44998 12.511 9.60415 12.408C9.75832 12.305 9.93958 12.25 10.125 12.25C10.3736 12.25 10.6121 12.3488 10.7879 12.5246C10.9637 12.7004 11.0625 12.9389 11.0625 13.1875Z" fill="#F9F9F9"/>
</svg>
