<svg width="24" height="24" viewBox="0 0 24 24" fill="none" xmlns="http://www.w3.org/2000/svg">
<path d="M22.0612 19.9387C22.343 20.2205 22.5013 20.6027 22.5013 21.0012C22.5013 21.3997 22.343 21.7819 22.0612 22.0637C21.7794 22.3455 21.3972 22.5038 20.9987 22.5038C20.6002 22.5038 20.218 22.3455 19.9362 22.0637L11.9999 14.125L4.0612 22.0612C3.7794 22.343 3.39721 22.5013 2.9987 22.5013C2.60018 22.5013 2.21799 22.343 1.9362 22.0612C1.6544 21.7794 1.49609 21.3972 1.49609 20.9987C1.49609 20.6002 1.6544 20.218 1.9362 19.9362L9.87495 12L1.9387 4.06122C1.6569 3.77943 1.49859 3.39724 1.49859 2.99873C1.49859 2.60021 1.6569 2.21802 1.9387 1.93622C2.22049 1.65443 2.60268 1.49612 3.0012 1.49612C3.39971 1.49612 3.7819 1.65443 4.0637 1.93622L11.9999 9.87498L19.9387 1.93497C20.2205 1.65318 20.6027 1.49487 21.0012 1.49487C21.3997 1.49487 21.7819 1.65318 22.0637 1.93497C22.3455 2.21677 22.5038 2.59896 22.5038 2.99747C22.5038 3.39599 22.3455 3.77818 22.0637 4.05998L14.1249 12L22.0612 19.9387Z" fill="#045F51"/>
</svg>
